<svg width="17" height="18" viewBox="0 0 17 18" fill="none" xmlns="http://www.w3.org/2000/svg">
<path d="M11.6326 3.37499C11.6326 1.51101 10.2123 0 8.46011 0C6.70794 0 5.28757 1.51101 5.28757 3.37499C5.28757 5.23897 6.70794 6.74998 8.46011 6.74998C10.2123 6.74998 11.6326 5.23897 11.6326 3.37499ZM7.71952 8.47615C5.75882 7.19928 2.58298 6.84842 0.98481 6.75174C0.447791 6.7194 0 7.15463 0 7.70412V15.5369C0 16.0407 0.383018 16.4608 0.875423 16.4879C2.31827 16.5684 5.23734 16.8634 7.25487 17.9444C7.56453 18.1103 7.93168 17.8843 7.93168 17.5271V8.87904C7.93135 8.71486 7.85501 8.56439 7.71952 8.47615ZM15.9354 6.75174C14.3376 6.84807 11.1614 7.19928 9.20103 8.47615C9.06554 8.56439 8.9892 8.72084 8.9892 8.88502V17.526C8.9892 17.8843 9.35734 18.1107 9.66799 17.9444C11.6852 16.8644 14.6026 16.5694 16.0451 16.4889C16.5375 16.4615 16.9205 16.0414 16.9205 15.5376V7.70412C16.9202 7.15463 16.4724 6.7194 15.9354 6.75174Z" fill="#EDEDED" fill-opacity="0.5"/>
</svg>
