<svg width="17" height="19" viewBox="0 0 17 19" fill="none" xmlns="http://www.w3.org/2000/svg">
<path d="M0 15.0404V16.625C0 17.935 2.85547 19 6.375 19C9.89453 19 12.75 17.935 12.75 16.625V15.0404C11.3787 16.1203 8.87187 16.625 6.375 16.625C3.87813 16.625 1.37129 16.1203 0 15.0404ZM10.625 4.75C14.1445 4.75 17 3.68496 17 2.375C17 1.06504 14.1445 0 10.625 0C7.10547 0 4.25 1.06504 4.25 2.375C4.25 3.68496 7.10547 4.75 10.625 4.75ZM0 11.1477V13.0625C0 14.3725 2.85547 15.4375 6.375 15.4375C9.89453 15.4375 12.75 14.3725 12.75 13.0625V11.1477C11.3787 12.4094 8.86856 13.0625 6.375 13.0625C3.88145 13.0625 1.37129 12.4094 0 11.1477ZM13.8125 11.5559C15.715 11.1439 17 10.3795 17 9.5V7.91543C16.2297 8.52402 15.0975 8.93965 13.8125 9.1957V11.5559ZM6.375 5.9375C2.85547 5.9375 0 7.26602 0 8.90625C0 10.5465 2.85547 11.875 6.375 11.875C9.89453 11.875 12.75 10.5465 12.75 8.90625C12.75 7.26602 9.89453 5.9375 6.375 5.9375ZM13.6564 8.02676C15.6486 7.62598 17 6.83926 17 5.9375V4.35293C15.8213 5.28438 13.7959 5.78535 11.6643 5.9041C12.6437 6.43477 13.3643 7.14727 13.6564 8.02676Z" fill="#EDEDED" fill-opacity="0.5"/>
</svg>
