<svg width="41" height="39" viewBox="0 0 41 39" fill="none" xmlns="http://www.w3.org/2000/svg">
<g filter="url(#filter0_d_21_41)">
<path d="M20.2216 10.8254L13.5003 17.1306V23.9357C13.5003 24.1119 13.5617 24.2809 13.6711 24.4055C13.7805 24.5301 13.9289 24.6001 14.0836 24.6001L18.1688 24.588C18.323 24.5872 18.4706 24.5168 18.5793 24.3923C18.6881 24.2678 18.7491 24.0993 18.7491 23.9237V19.9495C18.7491 19.7733 18.8106 19.6044 18.92 19.4798C19.0294 19.3552 19.1777 19.2852 19.3324 19.2852H21.6656C21.8203 19.2852 21.9686 19.3552 22.078 19.4798C22.1874 19.6044 22.2489 19.7733 22.2489 19.9495V23.9208C22.2486 24.0082 22.2635 24.0948 22.2927 24.1757C22.322 24.2565 22.3649 24.33 22.4191 24.3919C22.4733 24.4538 22.5376 24.5029 22.6085 24.5364C22.6794 24.57 22.7554 24.5872 22.8322 24.5872L26.9159 24.6001C27.0706 24.6001 27.219 24.5301 27.3284 24.4055C27.4377 24.2809 27.4992 24.1119 27.4992 23.9357V17.126L20.7794 10.8254C20.7004 10.7528 20.6019 10.7133 20.5005 10.7133C20.399 10.7133 20.3006 10.7528 20.2216 10.8254ZM30.8385 15.1109L27.7908 12.2496V6.49827C27.7908 6.36612 27.7448 6.23938 27.6627 6.14594C27.5807 6.0525 27.4694 6 27.3534 6H25.3119C25.1958 6 25.0846 6.0525 25.0025 6.14594C24.9205 6.23938 24.8744 6.36612 24.8744 6.49827V9.51323L21.6105 6.45467C21.2973 6.1611 20.9043 6.00059 20.4986 6.00059C20.093 6.00059 19.7 6.1611 19.3868 6.45467L10.1588 15.1109C10.1145 15.1526 10.0778 15.2038 10.0509 15.2617C10.024 15.3195 10.0074 15.3828 10.0019 15.448C9.99653 15.5132 10.0024 15.5789 10.0193 15.6415C10.0362 15.7041 10.0638 15.7622 10.1004 15.8126L11.0301 17.0998C11.0666 17.1505 11.1115 17.1924 11.1623 17.2231C11.2131 17.2539 11.2687 17.273 11.326 17.2793C11.3832 17.2856 11.441 17.279 11.496 17.2598C11.551 17.2406 11.6022 17.2093 11.6465 17.1675L20.2216 9.12292C20.3006 9.05039 20.399 9.01084 20.5005 9.01084C20.6019 9.01084 20.7004 9.05039 20.7794 9.12292L29.3548 17.1675C29.3991 17.2093 29.4501 17.2406 29.5051 17.2599C29.56 17.2791 29.6177 17.2859 29.6749 17.2797C29.7321 17.2735 29.7877 17.2546 29.8385 17.2239C29.8893 17.1933 29.9343 17.1515 29.9709 17.1011L30.9005 15.8139C30.9371 15.7632 30.9645 15.7047 30.9812 15.6419C30.9979 15.579 31.0036 15.513 30.9978 15.4477C30.9921 15.3824 30.975 15.319 30.9477 15.2612C30.9203 15.2034 30.8832 15.1523 30.8385 15.1109Z" fill="#EDEDED"/>
</g>
<defs>
<filter id="filter0_d_21_41" x="0" y="0" width="41" height="38.6001" filterUnits="userSpaceOnUse" color-interpolation-filters="sRGB">
<feFlood flood-opacity="0" result="BackgroundImageFix"/>
<feColorMatrix in="SourceAlpha" type="matrix" values="0 0 0 0 0 0 0 0 0 0 0 0 0 0 0 0 0 0 127 0" result="hardAlpha"/>
<feOffset dy="4"/>
<feGaussianBlur stdDeviation="5"/>
<feComposite in2="hardAlpha" operator="out"/>
<feColorMatrix type="matrix" values="0 0 0 0 0.929412 0 0 0 0 0.929412 0 0 0 0 0.929412 0 0 0 0.2 0"/>
<feBlend mode="normal" in2="BackgroundImageFix" result="effect1_dropShadow_21_41"/>
<feBlend mode="normal" in="SourceGraphic" in2="effect1_dropShadow_21_41" result="shape"/>
</filter>
</defs>
</svg>
