<svg width="19" height="19" viewBox="0 0 19 19" fill="none" xmlns="http://www.w3.org/2000/svg">
<path d="M8.17983 4.85205L5.65257 0.57668C5.54866 0.400804 5.40165 0.255245 5.22585 0.154183C5.05005 0.0531218 4.85146 2.51797e-06 4.64942 0H0.585999C0.112572 0 -0.164538 0.540684 0.106723 0.934414L4.17453 6.83332C5.26104 5.80279 6.64293 5.09549 8.17983 4.85205ZM18.1317 0H14.0682C13.6573 0 13.2764 0.218945 13.0651 0.57668L10.5378 4.85205C12.0747 5.09549 13.4566 5.80279 14.5431 6.83295L18.6109 0.934414C18.8822 0.540684 18.6051 0 18.1317 0ZM9.35883 5.9375C5.80539 5.9375 2.92461 8.86172 2.92461 12.4688C2.92461 16.0758 5.80539 19 9.35883 19C12.9123 19 15.793 16.0758 15.793 12.4688C15.793 8.86172 12.9123 5.9375 9.35883 5.9375ZM12.7412 11.7733L11.3545 13.1449L11.6825 15.0827C11.7409 15.4301 11.3805 15.6954 11.0738 15.5314L9.35883 14.6166L7.64426 15.5314C7.33717 15.6965 6.97707 15.4297 7.03556 15.0827L7.36349 13.1449L5.97684 11.7733C5.72752 11.5269 5.86534 11.0968 6.20899 11.0463L8.12572 10.7628L8.98228 8.99939C9.05942 8.84057 9.20857 8.76227 9.3581 8.76227C9.50835 8.76227 9.6586 8.84168 9.73574 8.99939L10.5923 10.7628L12.509 11.0463C12.8527 11.0968 12.9905 11.5269 12.7412 11.7733Z" fill="#EDEDED" fill-opacity="0.5"/>
</svg>
