<svg width="13" height="18" viewBox="0 0 13 18" fill="none" xmlns="http://www.w3.org/2000/svg">
<path d="M5.83199 17.6368C0.913047 10.2316 0 9.47155 0 6.75C0 3.02207 2.91014 0 6.5 0C10.0899 0 13 3.02207 13 6.75C13 9.47155 12.087 10.2316 7.16801 17.6368C6.84521 18.1211 6.15476 18.121 5.83199 17.6368ZM6.5 9.5625C7.99578 9.5625 9.20833 8.30331 9.20833 6.75C9.20833 5.19669 7.99578 3.9375 6.5 3.9375C5.00422 3.9375 3.79167 5.19669 3.79167 6.75C3.79167 8.30331 5.00422 9.5625 6.5 9.5625Z" fill="#EDEDED" fill-opacity="0.5"/>
</svg>
